<svg width="512" height="512" viewBox="0 0 512 512" xmlns="http://www.w3.org/2000/svg">
  <!-- Background with rounded corners for modern app icon look -->
  <defs>
    <linearGradient id="bgGradient" x1="0%" y1="0%" x2="100%" y2="100%">
      <stop offset="0%" style="stop-color:#ff6b6b;stop-opacity:1" />
      <stop offset="50%" style="stop-color:#4ecdc4;stop-opacity:1" />
      <stop offset="100%" style="stop-color:#45b7d1;stop-opacity:1" />
    </linearGradient>
    <linearGradient id="eyeGradient" x1="0%" y1="0%" x2="100%" y2="100%">
      <stop offset="0%" style="stop-color:#ffffff;stop-opacity:1" />
      <stop offset="100%" style="stop-color:#f0f0f0;stop-opacity:1" />
    </linearGradient>
    <filter id="shadow" x="-50%" y="-50%" width="200%" height="200%">
      <feDropShadow dx="0" dy="4" stdDeviation="8" flood-opacity="0.3"/>
    </filter>
  </defs>
  
  <!-- Rounded rectangle background -->
  <rect x="20" y="20" width="472" height="472" rx="94" ry="94" fill="url(#bgGradient)" filter="url(#shadow)"/>
  
  <!-- Inner content area -->
  <g transform="translate(256, 256)">
    <!-- Anime character face - scaled up for PWA -->
    <!-- Head -->
    <ellipse cx="0" cy="-30" rx="120" ry="130" fill="#ffeaa7" stroke="#2d3436" stroke-width="8"/>
    
    <!-- Hair - more detailed for larger size -->
    <path d="M -112 -120 Q -80 -180 0 -170 Q 80 -180 112 -120 Q 96 -150 80 -140 Q 60 -180 40 -150 Q 20 -190 0 -150 Q -20 -190 -40 -150 Q -60 -180 -80 -140 Q -96 -150 -112 -120 Z" fill="#74b9ff" stroke="#2d3436" stroke-width="6"/>
    
    <!-- Eyes - larger and more expressive -->
    <ellipse cx="-40" cy="-50" rx="25" ry="35" fill="url(#eyeGradient)" stroke="#2d3436" stroke-width="6"/>
    <ellipse cx="40" cy="-50" rx="25" ry="35" fill="url(#eyeGradient)" stroke="#2d3436" stroke-width="6"/>
    
    <!-- Eye pupils -->
    <circle cx="-40" cy="-45" r="15" fill="#2d3436"/>
    <circle cx="40" cy="-45" r="15" fill="#2d3436"/>
    
    <!-- Large eye highlights for anime effect -->
    <circle cx="-35" cy="-55" r="8" fill="#ffffff"/>
    <circle cx="45" cy="-55" r="8" fill="#ffffff"/>
    <circle cx="-42" cy="-40" r="4" fill="#ffffff" opacity="0.7"/>
    <circle cx="38" cy="-40" r="4" fill="#ffffff" opacity="0.7"/>
    
    <!-- Nose -->
    <line x1="0" y1="-20" x2="0" y2="-5" stroke="#2d3436" stroke-width="6" stroke-linecap="round"/>
    
    <!-- Mouth - happy expression -->
    <path d="M -20 10 Q 0 30 20 10" stroke="#2d3436" stroke-width="8" fill="none" stroke-linecap="round"/>
    
    <!-- Tracking elements - made more prominent -->
    <!-- List representation -->
    <rect x="-180" y="80" width="80" height="12" fill="#ffffff" opacity="0.9" rx="6"/>
    <rect x="-180" y="100" width="60" height="12" fill="#ffffff" opacity="0.8" rx="6"/>
    <rect x="-180" y="120" width="70" height="12" fill="#ffffff" opacity="0.7" rx="6"/>
    <rect x="-180" y="140" width="50" height="12" fill="#ffffff" opacity="0.6" rx="6"/>
    
    <!-- Check marks - more prominent -->
    <g stroke="#00b894" stroke-width="12" fill="none" stroke-linecap="round" stroke-linejoin="round">
      <path d="M 100 85 L 115 100 L 140 75"/>
      <path d="M 100 125 L 115 140 L 140 115"/>
    </g>
    
    <!-- Additional anime elements -->
    <!-- Stars for sparkle effect -->
    <g fill="#fdcb6e" stroke="#e17055" stroke-width="3">
      <path d="M 150 -100 L 155 -90 L 165 -90 L 157 -82 L 160 -72 L 150 -78 L 140 -72 L 143 -82 L 135 -90 L 145 -90 Z"/>
      <path d="M -150 -80 L -147 -75 L -142 -75 L -146 -71 L -145 -66 L -150 -69 L -155 -66 L -154 -71 L -158 -75 L -153 -75 Z"/>
    </g>
    
    <!-- Play button symbol for anime/video theme -->
    <polygon points="120,-40 120,-10 145,-25" fill="#ffffff" opacity="0.8"/>
  </g>
</svg>