<svg width="64" height="64" viewBox="0 0 64 64" xmlns="http://www.w3.org/2000/svg">
  <!-- Background circle with gradient -->
  <defs>
    <linearGradient id="bgGradient" x1="0%" y1="0%" x2="100%" y2="100%">
      <stop offset="0%" style="stop-color:#ff6b6b;stop-opacity:1" />
      <stop offset="50%" style="stop-color:#4ecdc4;stop-opacity:1" />
      <stop offset="100%" style="stop-color:#45b7d1;stop-opacity:1" />
    </linearGradient>
    <linearGradient id="eyeGradient" x1="0%" y1="0%" x2="100%" y2="100%">
      <stop offset="0%" style="stop-color:#ffffff;stop-opacity:1" />
      <stop offset="100%" style="stop-color:#f0f0f0;stop-opacity:1" />
    </linearGradient>
  </defs>
  
  <!-- Main background -->
  <circle cx="32" cy="32" r="30" fill="url(#bgGradient)" stroke="#2c3e50" stroke-width="2"/>
  
  <!-- Anime-style character face -->
  <!-- Head -->
  <ellipse cx="32" cy="28" rx="18" ry="20" fill="#ffeaa7" stroke="#2d3436" stroke-width="1.5"/>
  
  <!-- Hair -->
  <path d="M 14 18 Q 20 8 32 10 Q 44 8 50 18 Q 48 12 44 14 Q 40 8 36 12 Q 32 6 28 12 Q 24 8 20 14 Q 16 12 14 18 Z" fill="#74b9ff" stroke="#2d3436" stroke-width="1"/>
  
  <!-- Eyes -->
  <ellipse cx="26" cy="25" rx="4" ry="6" fill="url(#eyeGradient)" stroke="#2d3436" stroke-width="1"/>
  <ellipse cx="38" cy="25" rx="4" ry="6" fill="url(#eyeGradient)" stroke="#2d3436" stroke-width="1"/>
  
  <!-- Eye pupils -->
  <circle cx="26" cy="26" r="2.5" fill="#2d3436"/>
  <circle cx="38" cy="26" r="2.5" fill="#2d3436"/>
  
  <!-- Eye highlights -->
  <circle cx="27" cy="24.5" r="1" fill="#ffffff"/>
  <circle cx="39" cy="24.5" r="1" fill="#ffffff"/>
  
  <!-- Nose -->
  <line x1="32" y1="28" x2="32" y2="30" stroke="#2d3436" stroke-width="1" stroke-linecap="round"/>
  
  <!-- Mouth -->
  <path d="M 29 33 Q 32 36 35 33" stroke="#2d3436" stroke-width="1.5" fill="none" stroke-linecap="round"/>
  
  <!-- Tracking/List elements -->
  <!-- Small list lines representing anime tracking -->
  <rect x="8" y="46" width="12" height="2" fill="#ffffff" opacity="0.9" rx="1"/>
  <rect x="8" y="50" width="8" height="2" fill="#ffffff" opacity="0.7" rx="1"/>
  <rect x="8" y="54" width="10" height="2" fill="#ffffff" opacity="0.8" rx="1"/>
  
  <!-- Check marks -->
  <path d="M 44 48 L 46 50 L 50 46" stroke="#00b894" stroke-width="2" fill="none" stroke-linecap="round" stroke-linejoin="round"/>
  <path d="M 44 54 L 46 56 L 50 52" stroke="#00b894" stroke-width="2" fill="none" stroke-linecap="round" stroke-linejoin="round"/>
  
  <!-- Small star accent -->
  <path d="M 52 20 L 53 22 L 55 22 L 53.5 23.5 L 54 25.5 L 52 24.5 L 50 25.5 L 50.5 23.5 L 49 22 L 51 22 Z" fill="#fdcb6e" stroke="#e17055" stroke-width="0.5"/>
</svg>